<svg xmlns="http://www.w3.org/2000/svg" viewBox="0 0 135.44 58.13"><defs><style>.cls-1{fill:#84d044;}.cls-2{fill:#49494a;}</style></defs><g id="Layer_2" data-name="Layer 2"><g id="Layer_1-2" data-name="Layer 1"><path class="cls-1" d="M7.69.23h2.36L5,10.65,0,.23H2.35L5,6.27Z"/><path class="cls-1" d="M10.86,6.45V.23H13V6.39a2,2,0,0,0,2.2,2.11,2,2,0,0,0,2.19-2.11V.23h2.11V6.45c0,2.53-1.66,4.12-4.3,4.12S10.86,9,10.86,6.45Z"/><path class="cls-1" d="M21,5.32a5.26,5.26,0,0,1,10.51,0A5.26,5.26,0,0,1,21,5.32Zm8.34,0a3.09,3.09,0,1,0-6.18,0,3.09,3.09,0,1,0,6.18,0Z"/><path class="cls-1" d="M33.14,10.42V.23h2.11V10.42Z"/><path class="cls-1" d="M41.21,9.31l1-1.74a4.54,4.54,0,0,0,2.78,1c1,0,1.63-.4,1.63-1.07s-.44-1-1.92-1.41c-2.25-.61-3.12-1.45-3.12-3,0-1.79,1.48-3,3.63-3A5.9,5.9,0,0,1,48.57,1l-1,1.73a4.3,4.3,0,0,0-2.3-.7c-.93,0-1.49.34-1.49.91s.39.84,1.91,1.3c2.15.66,3.12,1.63,3.12,3.14,0,1.87-1.52,3.13-3.79,3.13A6.38,6.38,0,0,1,41.21,9.31Z"/><path class="cls-1" d="M49.85,5.32a5.26,5.26,0,0,1,10.51,0,5.26,5.26,0,0,1-10.51,0Zm8.33,0a3.09,3.09,0,1,0-6.17,0,3.09,3.09,0,1,0,6.17,0Z"/><path class="cls-1" d="M61.07,9.31l1-1.74a4.52,4.52,0,0,0,2.78,1c1,0,1.63-.4,1.63-1.07s-.44-1-1.92-1.41c-2.26-.61-3.12-1.45-3.12-3,0-1.79,1.48-3,3.63-3A5.9,5.9,0,0,1,68.43,1l-1,1.73a4.32,4.32,0,0,0-2.3-.7c-.93,0-1.5.34-1.5.91s.4.84,1.92,1.3c2.15.66,3.12,1.63,3.12,3.14,0,1.87-1.52,3.13-3.79,3.13A6.36,6.36,0,0,1,61.07,9.31Z"/><path class="cls-1" d="M72.21,10.42V2.27h-3v-2h8v2h-3v8.15Z"/><path class="cls-1" d="M85.08,2.26H80.54v2h4V6.19h-4v2.2h4.54v2H78.43V.23h6.65Z"/><path class="cls-1" d="M95.67,10.65,88.74,4.48v5.94h-2V0l6.92,6.17V.23h2.06Z"/><path class="cls-1" d="M104.35,2.26H99.81v2h4V6.19h-4v2.2h4.54v2H97.7V.23h6.65Z"/><path class="cls-1" d="M112.22,7.19l1.54,3.23h-2.3l-1.19-2.69a5.63,5.63,0,0,1-.58,0h-1.63v2.66H106V.23h3.73c2.56,0,4.25,1.52,4.25,3.86A3.35,3.35,0,0,1,112.22,7.19Zm-4.16-1.26h1.77a1.8,1.8,0,0,0,1.94-1.84,1.79,1.79,0,0,0-1.94-1.83h-1.77Z"/><path class="cls-1" d="M115.05,5.32a5.33,5.33,0,0,1,9.28-3.46l-1.6,1.4a3.15,3.15,0,0,0-5.52,2.06,3.15,3.15,0,0,0,5.52,2.07l1.6,1.4a5.33,5.33,0,0,1-9.28-3.47Z"/><path class="cls-1" d="M125.74,10.42V.23h2.11V10.42Z"/><path class="cls-1" d="M131.11,6.83V6.46a2.19,2.19,0,0,1,1.11-1.87c.82-.63,1.06-.88,1.06-1.44a1.08,1.08,0,0,0-1.17-1.06,1.82,1.82,0,0,0-1.49.77l-1.57-1.2A3.57,3.57,0,0,1,132.17.1c1.9,0,3.27,1.08,3.27,2.68A3.19,3.19,0,0,1,134,5.45c-.66.54-.76.7-.76,1.09v.29Zm-.33,2.34a1.4,1.4,0,1,1,1.4,1.38A1.39,1.39,0,0,1,130.78,9.17Z"/><path class="cls-2" d="M0,25.1V16.18H3.27C5.52,16.18,7,17.52,7,19.57S5.52,23,3.27,23H1.85V25.1Zm1.85-3.91H3.39a1.62,1.62,0,1,0,0-3.24H1.85Z"/><path class="cls-2" d="M8.23,21.62V16.18h1.85v5.4A1.74,1.74,0,0,0,12,23.42a1.73,1.73,0,0,0,1.92-1.84v-5.4h1.85v5.44A3.44,3.44,0,0,1,12,25.23,3.43,3.43,0,0,1,8.23,21.62Z"/><path class="cls-2" d="M17.14,20.64a4.61,4.61,0,1,1,4.59,4.58A4.52,4.52,0,0,1,17.14,20.64Zm7.3,0a2.71,2.71,0,1,0-2.71,2.76A2.66,2.66,0,0,0,24.44,20.64Z"/><path class="cls-2" d="M27.76,25.1V16.18H29.6V25.1Z"/><path class="cls-2" d="M31.5,24a1.23,1.23,0,1,1,1.22,1.21A1.21,1.21,0,0,1,31.5,24Zm.28-2.12V16.17h1.89v5.72Z"/><path class="cls-2" d="M39.48,20.64a4.56,4.56,0,0,1,4.67-4.58,4.9,4.9,0,0,1,3.56,1.32l-1.38,1.31a2.94,2.94,0,0,0-2.18-.81,2.8,2.8,0,1,0,.14,5.59,3,3,0,0,0,2-.58V21.66H44.5v-1.5H48v3.72a5.38,5.38,0,0,1-3.77,1.34A4.48,4.48,0,0,1,39.48,20.64Z"/><path class="cls-2" d="M55.08,22.27l1.34,2.83h-2l-1-2.35-.5,0H51.43V25.1H49.58V16.18h3.28c2.24,0,3.72,1.33,3.72,3.38A3,3,0,0,1,55.08,22.27Zm-3.65-1.1H53A1.61,1.61,0,1,0,53,18H51.43Z"/><path class="cls-2" d="M63.85,25.1l-.7-1.47H59.64l-.71,1.47H56.87L61.38,16l4.53,9.14Zm-1.35-3-1.12-2.43L60.25,22.1Z"/><path class="cls-2" d="M74.16,16.18l-4.37,7.13h4.27V25.1h-7.5L70.94,18h-3.8V16.18Z"/><path class="cls-2" d="M75.21,25.1V16.18h1.85V25.1Z"/><path class="cls-2" d="M84.67,18h-4v1.78H84.2V21.4H80.69v1.93h4V25.1H78.84V16.18h5.83Z"/><path class="cls-2" d="M96.16,25.1l-.69-1.47H92l-.7,1.47H89.18L93.69,16l4.54,9.14Zm-1.34-3-1.13-2.43L92.57,22.1Z"/><path class="cls-2" d="M101,23.31h3.86V25.1H99.12V16.18H101Z"/><path class="cls-2" d="M111.93,25.1V18h-2.6V16.18h7V18h-2.59V25.1Z"/><path class="cls-2" d="M117.32,21.62V16.18h1.85v5.4a1.93,1.93,0,0,0,3.85,0v-5.4h1.85v5.44a3.78,3.78,0,0,1-7.55,0Z"/><path class="cls-2" d="M126.23,20.64a4.61,4.61,0,1,1,4.59,4.58A4.52,4.52,0,0,1,126.23,20.64Zm7.3,0a2.71,2.71,0,1,0-2.71,2.76A2.66,2.66,0,0,0,133.53,20.64Z"/><path class="cls-1" d="M0,54.16l4-3.65a6,6,0,0,0,4.9,2.26c2.79,0,4.73-1.72,4.73-4.12s-1.87-4.08-4.94-4.08c-2.29,0-4.4.72-7.48,2.47V31.16H17.32v5.33H6.4v4.36A8.24,8.24,0,0,1,10.13,40c5.54,0,9.15,3.43,9.15,8.51,0,5.55-4.4,9.66-10.3,9.66C5.08,58.13,2,56.77,0,54.16Z"/><path class="cls-2" d="M46.7,57.77H40.08L33.82,47.44,27.74,57.77H21.27l8.87-13.91-8.37-12.7h6.58L33.82,40l5.37-8.87H45.7L37.47,43.5Z"/><path class="cls-1" d="M53.87,57.77V38.24l-4.94,2-1.78-4.86,12.12-4.83V57.77Z"/><path class="cls-1" d="M64.15,47.15V41.78c0-6.47,4.22-11,10.37-11s10.38,4.51,10.38,11v5.37c0,6.47-4.23,11-10.42,11S64.15,53.62,64.15,47.15Zm15.27,0V41.78c0-3.5-1.82-5.69-4.9-5.69s-4.9,2.19-4.9,5.69v5.37c0,3.47,1.86,5.69,4.9,5.69S79.42,50.65,79.42,47.15Z"/><path class="cls-1" d="M89.42,47.15V41.78c0-6.47,4.22-11,10.37-11s10.38,4.51,10.38,11v5.37c0,6.47-4.22,11-10.41,11S89.42,53.62,89.42,47.15Zm15.27,0V41.78c0-3.5-1.82-5.69-4.9-5.69s-4.9,2.19-4.9,5.69v5.37c0,3.47,1.86,5.69,4.9,5.69S104.69,50.65,104.69,47.15Z"/><path class="cls-1" d="M114.69,47.15V41.78c0-6.47,4.22-11,10.37-11s10.38,4.51,10.38,11v5.37c0,6.47-4.22,11-10.41,11S114.69,53.62,114.69,47.15Zm15.27,0V41.78c0-3.5-1.82-5.69-4.9-5.69s-4.9,2.19-4.9,5.69v5.37c0,3.47,1.86,5.69,4.9,5.69S130,50.65,130,47.15Z"/></g></g></svg>