<svg xmlns="http://www.w3.org/2000/svg" viewBox="0 0 189.28 106.27"><defs><style>.cls-1{fill:#fff;}</style></defs><g id="Layer_2" data-name="Layer 2"><g id="Grafica"><path class="cls-1" d="M7.89,92.77c0-1.3-.2-3.77-.6-7.33s-.58-5.93-.58-6.88v0l0,0a1.54,1.54,0,0,0-1-.31c-.49,0-1,.81-1.44,2.54A56,56,0,0,0,3,86.22c-.37,2.18-.78,4.85-1.22,7.93l-1,6.53A13.13,13.13,0,0,1,0,104l0,0v0c.14.53.62.8,1.44.8h.07l0-.06a6,6,0,0,0,.37-1c.12-.42.23-.92.34-1.5s.16-.94.18-1.1l.12-.72A6.32,6.32,0,0,1,3,98.78a13.65,13.65,0,0,1,2,.31,4.23,4.23,0,0,1,1.4.52v4.62a1.08,1.08,0,0,0,.26.8,1.13,1.13,0,0,0,.79.24c.51,0,1.11-.23,1.11-1.32,0-1.43-.1-3.36-.3-5.76S7.89,94,7.89,92.77Zm-2,4.61A8.44,8.44,0,0,1,3.26,97c0-.73.19-2.17.48-4.26s.63-4.25,1-6.16a23.36,23.36,0,0,1,.61-2.74c0,1.36.26,4.62.7,9.68.14,1.54.23,2.78.29,3.8A2.06,2.06,0,0,1,5.84,97.38Z"/><path class="cls-1" d="M23,91.2c-.18-5.66-.27-10-.27-12.81a1.11,1.11,0,0,0-.24-.68.69.69,0,0,0-.57-.33,1.15,1.15,0,0,0-.8.3,1.23,1.23,0,0,0-.4.81v.21c-.06,1.18-.2,2.68-.42,4.45-.2,1.49-.41,2.9-.62,4.18s-.48,2.74-.81,4.49l-.57,2.93-.1.55-.35-2.11c-.1-.73-.28-1.79-.52-3.14,0-.42-.12-.94-.24-1.54a76.08,76.08,0,0,0-2-8.88,6.45,6.45,0,0,0-.56-1.21c-.18-.28-.36-.44-.56-.46h0l-.9.63v0c0,2-.06,3.57-.06,4.61l.13,13.82c0,.63,0,1.6-.1,2.89l-.06,2.93a3.69,3.69,0,0,0,.3,1.67,1.19,1.19,0,0,0,1.15.61h0l0,0A2.35,2.35,0,0,0,15,103.7l-.06-4.9-.06-2.42c-.1-3.58-.15-6.06-.15-7.35l.05-3.36.7,3.09c.46,2.06.8,3.82,1,5.23a27,27,0,0,1,.32,4c0,2.33.39,3.47,1.2,3.47.48,0,.83-.32,1.05-.94a8.06,8.06,0,0,0,.3-1.62l.1-.7V98c.19-1.37.5-3.14.94-5.27.3-1.4.54-2.59.72-3.56v.54c0,2.79,0,5.32.06,7.49,0,1.07,0,1.8,0,2.25l0,5.29a2.39,2.39,0,0,0,.2,1.08.65.65,0,0,0,.58.42c.35,0,.65-.24.92-.7a3,3,0,0,0,.37-1.52c0-1.85,0-3.4-.06-4.6C23.15,96.72,23.08,94,23,91.2Z"/><path class="cls-1" d="M31,102.84a3.7,3.7,0,0,0-.5,0v-1.23c0-2.32-.12-5.84-.36-10.47-.26-4.4-.39-7.91-.39-10.42a.83.83,0,0,1,.11-.52.43.43,0,0,1,.35-.12h.23a1,1,0,0,0,.32,0,.69.69,0,0,0,.59-.33,1.32,1.32,0,0,0,.21-.75,1.09,1.09,0,0,0-.28-.75.92.92,0,0,0-.7-.32,11.53,11.53,0,0,0-2.18.25,3,3,0,0,0-1.18.49,1,1,0,0,0-.48.83c0,.8.44,1,.81,1a1.8,1.8,0,0,0,.6-.1c0,.49.07,1.1.07,1.81l0,1.82c0,.54,0,1.15,0,1.82,0,1.85.09,4.63.28,8.26s.3,6.27.3,8.27a1.27,1.27,0,0,1-.09.59.26.26,0,0,1-.26.12.88.88,0,0,1-.24,0h-.39c-.67,0-1,.33-1,1,0,.8.89,1.19,2.71,1.19.17,0,.58,0,1.28-.08h.62l.16,0h0l.83-.67v-.26A1.23,1.23,0,0,0,31,102.84Z"/><path class="cls-1" d="M43,102.16a2.51,2.51,0,0,0-1.23.67,1.79,1.79,0,0,1-3.07-.69,8.82,8.82,0,0,1-1-3.18,25.24,25.24,0,0,1-.39-4c-.06-1.61-.09-2.89-.09-3.82v-.85A8.58,8.58,0,0,1,37.31,89a7.9,7.9,0,0,0,.12-1.27l0-1.22-.06-1.24c0-.57,0-1,0-1.15s0-.69.06-1.09a4.94,4.94,0,0,1,.18-1,3,3,0,0,1,.81-1.48,2.88,2.88,0,0,1,1.7-.55v.07h.44a.78.78,0,0,0,.47.32,1.38,1.38,0,0,0,1.36-.13.82.82,0,0,0,.28-.65A1.61,1.61,0,0,0,42,78.3a2.45,2.45,0,0,0-1.52-.52,4.89,4.89,0,0,0-3.53,1.35,4.76,4.76,0,0,0-1.4,3.54,8,8,0,0,0,.09,1.11,20.52,20.52,0,0,0-.21,3.32c0,.67,0,1.35,0,2v2.24c0,1.36,0,2.28,0,2.83a43,43,0,0,0,.49,5.54,15.64,15.64,0,0,0,.55,2.43,8.68,8.68,0,0,0,.83,1.94,4.4,4.4,0,0,0,1.26,1.28,2.9,2.9,0,0,0,1.62.48,8.39,8.39,0,0,0,1-.07,4,4,0,0,0,1.93-.85A2.61,2.61,0,0,0,44,102.8v0l0,0A1.33,1.33,0,0,0,43,102.16Z"/><path class="cls-1" d="M50.83,102.84a3.48,3.48,0,0,0-.49,0v-1.23c0-2.32-.12-5.84-.37-10.47-.26-4.4-.39-7.91-.39-10.42a.83.83,0,0,1,.11-.52.46.46,0,0,1,.36-.12h.22a1,1,0,0,0,.32,0,.69.69,0,0,0,.59-.33,1.25,1.25,0,0,0,.22-.75,1.1,1.1,0,0,0-.29-.75.92.92,0,0,0-.7-.32,11.35,11.35,0,0,0-2.17.25,2.9,2.9,0,0,0-1.18.49,1,1,0,0,0-.49.83c0,.8.44,1,.81,1a1.72,1.72,0,0,0,.6-.1c.05.49.08,1.1.08,1.81l0,1.82c0,.54,0,1.15,0,1.82,0,1.85.09,4.63.27,8.26s.3,6.27.3,8.27a1.27,1.27,0,0,1-.09.59.26.26,0,0,1-.25.12.88.88,0,0,1-.24,0h-.4a.89.89,0,0,0-1,1c0,.8.89,1.19,2.72,1.19.16,0,.58,0,1.27-.08h.62l.17,0h0l.83-.67v-.26A1.23,1.23,0,0,0,50.83,102.84Z"/><path class="cls-1" d="M72.42,88.88c0-.76-.06-1.82-.18-3.16a20.18,20.18,0,0,0-.79-3.59,8,8,0,0,0-1.67-2.93A4.08,4.08,0,0,0,66.86,78H66.4c-1.62,0-2.44.46-2.44,1.36a11.7,11.7,0,0,0,.37,2.27,13.52,13.52,0,0,1,.3,2.51c0,.73,0,1.39,0,2l-.06,2c0,1.43.1,3.4.3,5.86s.27,4.57.27,5.92c0,2.22-.21,3.61-.64,4.11l0,0v0a1.16,1.16,0,0,0,.48,1,1.81,1.81,0,0,0,1.11.34,3.18,3.18,0,0,0,2.17-1,14.64,14.64,0,0,0,3.09-5.61,23.5,23.5,0,0,0,.83-3.25,15.14,15.14,0,0,0,.29-2.75,2.17,2.17,0,0,0,0-.38,1.9,1.9,0,0,1,0-.4.79.79,0,0,1,0-.25Zm-6,1.1c-.23-4.26-.36-7.5-.36-9.63a3.29,3.29,0,0,1,1.62.47A3.86,3.86,0,0,1,69,82.12a10.45,10.45,0,0,1,1.4,4,30.66,30.66,0,0,1,.31,4.19,31,31,0,0,1-.82,7,13.85,13.85,0,0,1-1.29,3.41,7.18,7.18,0,0,1-1.76,2.21V99.77C66.79,97.56,66.66,94.27,66.42,90Z"/><path class="cls-1" d="M80.12,103.12h0l-1.58.1V92.35a.68.68,0,0,1,.53-.18h.38l.38,0a.77.77,0,0,0,.65-.38,1.52,1.52,0,0,0,.24-.83,1.11,1.11,0,0,0-.3-.77.88.88,0,0,0-.68-.34,3,3,0,0,0-1,.22l-.28.07,0-1.85c.06-.95.09-1.63.09-2.08l-.06-2-.06-1c-.08-1.09-.12-2-.12-2.84h.22a2,2,0,0,1,.43,0h.42c1.24,0,1.51-.64,1.51-1.18a1.08,1.08,0,0,0-.5-.89,1.67,1.67,0,0,0-1-.36,5.69,5.69,0,0,0-1.14.14,6.18,6.18,0,0,1-1.1.14h0l0,0a8.84,8.84,0,0,0-.78,1.31v.15a9.51,9.51,0,0,0,.22,1.84,13.44,13.44,0,0,1,.18,1.81V104.2c0,.59.19,1,.58,1.1a2.79,2.79,0,0,0,1,.19h.94l1,0a3.08,3.08,0,0,0,1-.35,1.57,1.57,0,0,0,.72-.75v-.19C82,103.47,81.35,103.12,80.12,103.12Z"/><path class="cls-1" d="M89.07,102.84a3.63,3.63,0,0,0-.5,0v-1.23c0-2.32-.12-5.84-.36-10.47-.26-4.41-.4-7.91-.4-10.42a.83.83,0,0,1,.11-.52.46.46,0,0,1,.36-.12h.23a.93.93,0,0,0,.31,0,.69.69,0,0,0,.59-.33,1.25,1.25,0,0,0,.22-.75,1.09,1.09,0,0,0-.28-.75.94.94,0,0,0-.71-.32,11.35,11.35,0,0,0-2.17.25,2.9,2.9,0,0,0-1.18.49,1,1,0,0,0-.48.83c0,.8.43,1,.8,1a1.81,1.81,0,0,0,.61-.1c0,.49.07,1.1.07,1.81l0,1.82c0,.54,0,1.15,0,1.82,0,1.85.09,4.63.27,8.26s.31,6.27.31,8.27a1.1,1.1,0,0,1-.1.59.26.26,0,0,1-.25.12.88.88,0,0,1-.24,0h-.4a.88.88,0,0,0-1,1c0,.8.88,1.19,2.71,1.19.16,0,.58,0,1.27-.08h.62l.17,0h0l.83-.67v-.26A1.23,1.23,0,0,0,89.07,102.84Z"/><path class="cls-1" d="M105.75,90.2a7.27,7.27,0,0,0,1.66-2.56,9,9,0,0,0,.73-3.4,6.86,6.86,0,0,0-1.26-4.31,4.14,4.14,0,0,0-3.45-1.65q-.89,0-1.08,1a9.34,9.34,0,0,0-.16,1.73v.22c0,1.62,0,4.06.1,7.25s.09,5.65.09,7.24l-.12,8.78h0c0,.67.5,1,1.5,1h.12a4,4,0,0,0,2.06-.56,6.57,6.57,0,0,0,2.44-3.23,9.14,9.14,0,0,0,.73-3.14,13.66,13.66,0,0,0-.84-4.88A8.28,8.28,0,0,0,105.75,90.2Zm.69-5.51a9.08,9.08,0,0,0-.3,1,17.94,17.94,0,0,1-.84,2.41h0a2.43,2.43,0,0,1-1.12,1.42l-.06-3.81c0-1.22-.06-2.64-.06-4.21,0-.37,0-1,.31-1a1.75,1.75,0,0,1,1.43,1,3.58,3.58,0,0,1,.65,2Zm-1.34,7.19.21.09a2.21,2.21,0,0,1,.54.58,8.06,8.06,0,0,1,.66,1.13,7.21,7.21,0,0,1,.58,2.06,18.4,18.4,0,0,1,.22,3,5.76,5.76,0,0,1-.86,3.19,3.31,3.31,0,0,1-2.16,1.54c0-5-.05-8.87-.14-11.58Z"/><path class="cls-1" d="M120.44,82.76A10.32,10.32,0,0,0,119.06,79a3,3,0,0,0-2.64-1.55,2.5,2.5,0,0,0-1.15.3,4,4,0,0,0-1.44,2.13,16.94,16.94,0,0,0-.61,3.42c-.1,1.09-.15,2.37-.15,3.79,0,.88,0,1.64,0,2.25v1.93l0,1.9c.1,2,.26,3.82.46,5.36a18.62,18.62,0,0,0,1.31,5.31,5.5,5.5,0,0,0,1.17,1.79,2.25,2.25,0,0,0,1.56.67,2,2,0,0,0,1.6-.89,5.36,5.36,0,0,0,1-1.86,6.43,6.43,0,0,0,.37-2.11,13.54,13.54,0,0,1,.18-2.35v-.15c0-.61,0-1.36.13-2.24.1-1.13.15-1.88.15-2.29v-2c0-1.47,0-3.08-.12-4.78A29.7,29.7,0,0,0,120.44,82.76Zm-2.74,21.33c-.4,0-.8-.4-1.18-1.19a22.69,22.69,0,0,1-1.41-6.71,51,51,0,0,1-.43-5.88v-.14c0-.56,0-1,0-1.36l0-1.18c0-1.13.09-2.34.21-3.59a15.41,15.41,0,0,1,.6-3.2c.23-.87.57-1.31,1-1.31a1.22,1.22,0,0,1,.89.47,3.88,3.88,0,0,1,.74,1.35,18.67,18.67,0,0,1,.9,4.33c.2,1.9.32,3.52.36,4.81l0,3.28c0,1,0,1.77-.06,2.39-.08,1.41-.17,2.7-.28,3.83a14.54,14.54,0,0,1-.53,2.85C118.36,103.67,118,104.09,117.7,104.09Z"/><path class="cls-1" d="M129.85,93.05l-2.12-5a16.27,16.27,0,0,1-.82-2.64,12.47,12.47,0,0,1-.32-2.74,5.07,5.07,0,0,1,.18-1.33,4.14,4.14,0,0,1,.6-1.23,1.31,1.31,0,0,1,.84-.57,1.86,1.86,0,0,0,1.21.35h.06l.58-.85,0-.05a2.21,2.21,0,0,0-.77-1,1.9,1.9,0,0,0-1.12-.39,2.52,2.52,0,0,0-2,.89,5.23,5.23,0,0,0-1.16,2,7.64,7.64,0,0,0-.39,2.46,13.29,13.29,0,0,0,.46,3.35,18.19,18.19,0,0,0,.72,2.26c.27.68.65,1.6,1.17,2.82l.48,1.15a20.06,20.06,0,0,1,1.1,3.28A13.7,13.7,0,0,1,129,99a11.09,11.09,0,0,1-.54,3.19,4.25,4.25,0,0,1-.73,1.51,1.21,1.21,0,0,1-1,.55A3.16,3.16,0,0,1,126,104a2.35,2.35,0,0,0-.93-.3.71.71,0,0,0-.61.31,1.39,1.39,0,0,0-.2.76,1,1,0,0,0,.54.84h0a3.73,3.73,0,0,0,1.93.48,3.05,3.05,0,0,0,1.89-.65,4.7,4.7,0,0,0,1.36-1.74,10.46,10.46,0,0,0,1-4.47,17.57,17.57,0,0,0-.3-3.23A15,15,0,0,0,129.85,93.05Z"/><path class="cls-1" d="M141.93,102.16a2.5,2.5,0,0,0-1.22.67,1.79,1.79,0,0,1-3.07-.69,8.83,8.83,0,0,1-1-3.17,25.47,25.47,0,0,1-.39-4.06c-.07-1.65-.1-2.9-.1-3.82v-.85a10.64,10.64,0,0,1,.15-1.23,7,7,0,0,0,.13-1.27l0-1.22-.06-1.24c0-.58,0-1,0-1.15a10.83,10.83,0,0,1,.06-1.09,5.92,5.92,0,0,1,.17-1,3,3,0,0,1,.81-1.48A2.89,2.89,0,0,1,139.1,80v.07h.43a.83.83,0,0,0,.48.32,1.38,1.38,0,0,0,1.36-.13.85.85,0,0,0,.28-.65,1.61,1.61,0,0,0-.71-1.34,2.48,2.48,0,0,0-1.52-.52,4.86,4.86,0,0,0-3.53,1.35,4.72,4.72,0,0,0-1.4,3.54,6.74,6.74,0,0,0,.09,1.11,20.52,20.52,0,0,0-.21,3.32c0,.68,0,1.35,0,2v2.24c0,1.33,0,2.28,0,2.83a41.25,41.25,0,0,0,.49,5.54,15.89,15.89,0,0,0,.54,2.43,9.15,9.15,0,0,0,.84,1.94,4.49,4.49,0,0,0,1.25,1.28,2.93,2.93,0,0,0,1.63.48,8.38,8.38,0,0,0,1-.07,4,4,0,0,0,1.93-.85,2.62,2.62,0,0,0,.89-2.12v0l0,0A1.35,1.35,0,0,0,141.93,102.16Z"/><path class="cls-1" d="M152.68,80.89v-.83a3,3,0,0,0-.35-1.41,1.3,1.3,0,0,0-.5-.45,1.54,1.54,0,0,0-.75-.17H151l.06,7c0,1.71.06,3.61.06,5.64-.32,0-.78,0-1.39.11-.29,0-.57.08-.84.1l-.5,0c0-.33-.05-.6-.05-.82s0-.48,0-.68v-.64c0-.83,0-2-.09-3.72-.08-1.42-.12-2.64-.12-3.63a25.74,25.74,0,0,1,.12-2.67v0l0,0a1.66,1.66,0,0,0-.5-.42,1.38,1.38,0,0,0-.68-.19c-.28,0-.62.13-.62.75,0,1.39,0,2.42,0,3.14,0,4,.07,7.8.21,11.29a83.11,83.11,0,0,0,.79,10.19c.24,1.2.5,1.73.83,1.73a.62.62,0,0,0,.55-.36,1.39,1.39,0,0,0,.2-.71c0-1.19-.08-3.24-.24-6.08-.18-2.62-.27-4.63-.27-6a4.81,4.81,0,0,1,1.67-.22,6.49,6.49,0,0,1,.93.13c.16,3.39.24,7.6.24,12.51a1.75,1.75,0,0,0,.21.89.75.75,0,0,0,.68.4.86.86,0,0,0,.72-.45,1.7,1.7,0,0,0,.27-1c0-2.61-.09-6.58-.27-11.78C152.78,86.88,152.68,82.93,152.68,80.89Z"/><path class="cls-1" d="M161,102.84a3.7,3.7,0,0,0-.5,0v-1.23c0-2.34-.12-5.86-.36-10.47-.26-4.4-.39-7.9-.39-10.42a.83.83,0,0,1,.11-.52.42.42,0,0,1,.35-.12h.23a1,1,0,0,0,.32,0,.7.7,0,0,0,.59-.33,1.32,1.32,0,0,0,.21-.75,1.09,1.09,0,0,0-.28-.75.94.94,0,0,0-.7-.32,11.53,11.53,0,0,0-2.18.25,3,3,0,0,0-1.18.49,1,1,0,0,0-.48.83c0,.8.44,1,.8,1a1.81,1.81,0,0,0,.61-.1c.05.5.07,1.1.07,1.81l0,1.82c0,.55,0,1.17,0,1.82,0,1.85.09,4.62.27,8.26.21,3.49.31,6.27.31,8.27a1.27,1.27,0,0,1-.09.59.28.28,0,0,1-.26.12.88.88,0,0,1-.24,0h-.39c-.67,0-1,.33-1,1,0,.8.89,1.19,2.71,1.19.17,0,.58,0,1.28-.08h.61l.17,0h0l.83-.67v-.26A1.23,1.23,0,0,0,161,102.84Z"/><path class="cls-1" d="M175.13,98.08c0-.81-.12-2.32-.37-4.51s-.35-3.64-.35-4.21v0l0,0a1,1,0,0,0-.67-.2c-.32,0-.61.49-.92,1.59a32.34,32.34,0,0,0-.74,3.39c-.23,1.36-.48,3-.75,4.86l-.62,4a7.39,7.39,0,0,1-.45,2l0,0v0c.09.34.4.52.93.52h.06l0-.06a5,5,0,0,0,.23-.62c.07-.26.14-.57.2-.93s.1-.58.12-.68l.07-.44a4.24,4.24,0,0,1,.26-1,7.48,7.48,0,0,1,1.17.19,2.48,2.48,0,0,1,.82.29v2.82a.68.68,0,0,0,.18.52.74.74,0,0,0,.51.16c.33,0,.72-.15.72-.86,0-.87-.06-2-.18-3.53S175.13,98.85,175.13,98.08Zm-1.3,2.78a5.22,5.22,0,0,1-1.54-.23c0-.46.12-1.33.3-2.58s.38-2.61.6-3.78c.13-.68.22-1.13.3-1.42,0,1,.17,2.82.42,5.67.08.94.14,1.69.18,2.3A1.51,1.51,0,0,1,173.83,100.86Z"/><path class="cls-1" d="M180.56,89.19a2.36,2.36,0,0,0-1.32-.38.93.93,0,0,0-.8.56l0,0v0a48,48,0,0,1,.48,7.8c0,1,0,2.33-.06,4.14l0,3.68a1.09,1.09,0,0,0,.13.57.47.47,0,0,0,.42.27.61.61,0,0,0,.56-.3,1.31,1.31,0,0,0,.17-.71c0-.61,0-1.4-.06-2.39,0-.48,0-.83,0-1.08l0-1.16,0-2.15a4.76,4.76,0,0,0,1.72-2,7.08,7.08,0,0,0,.6-3,5.79,5.79,0,0,0-.74-2.9A2.94,2.94,0,0,0,180.56,89.19Zm-.87,1.13.3.26a3.39,3.39,0,0,1,.66.64l.17.32A1.71,1.71,0,0,1,181,92a11,11,0,0,1,.09,1.28,5.44,5.44,0,0,1-.33,2,5.69,5.69,0,0,1-.87,1.46l-.1-3.18C179.73,92.14,179.7,91.06,179.69,90.32Z"/><path class="cls-1" d="M189.1,100a10.38,10.38,0,0,0-.51-1.8l-1.31-3.07a10.83,10.83,0,0,1-.5-1.61,7.51,7.51,0,0,1-.19-1.67,3.21,3.21,0,0,1,.1-.81,2.45,2.45,0,0,1,.37-.74.79.79,0,0,1,.46-.33,1.23,1.23,0,0,0,.76.21h.06l.38-.55,0-.06a1.36,1.36,0,0,0-.49-.63,1.16,1.16,0,0,0-.71-.25,1.57,1.57,0,0,0-1.23.56,3.18,3.18,0,0,0-.73,1.22,5.1,5.1,0,0,0-.23,1.53,7.91,7.91,0,0,0,.28,2.06,10.46,10.46,0,0,0,.44,1.4c.17.42.41,1,.72,1.73l.3.7a13.17,13.17,0,0,1,.67,2,8.63,8.63,0,0,1,.25,2,6.78,6.78,0,0,1-.34,1.94,2.41,2.41,0,0,1-.43.91.69.69,0,0,1-.56.32,1.8,1.8,0,0,1-.43-.16,1.56,1.56,0,0,0-.59-.19.49.49,0,0,0-.41.22.89.89,0,0,0-.13.49.68.68,0,0,0,.35.55h0a2.3,2.3,0,0,0,1.2.3,2,2,0,0,0,1.19-.4,3,3,0,0,0,.85-1.09,6.5,6.5,0,0,0,.6-2.76A11.16,11.16,0,0,0,189.1,100Z"/><path class="cls-1" d="M154.74,61.21a4.72,4.72,0,0,0-9.3-1.14l-34.2-34.64a.1.1,0,0,0-.17.08V65.83a.09.09,0,0,0,.1.1h39l.08,0A4.72,4.72,0,0,0,154.74,61.21Zm-35.06-14.7a3.37,3.37,0,1,1,3.37-3.37A3.37,3.37,0,0,1,119.68,46.51Z"/><path class="cls-1" d="M121,42.59a1.07,1.07,0,0,1-1.07-1.08,1.11,1.11,0,0,1,.31-.76,2.52,2.52,0,0,0-.56-.07,2.46,2.46,0,1,0,2.46,2.46,2.4,2.4,0,0,0-.25-1.06A1.06,1.06,0,0,1,121,42.59Z"/><path class="cls-1" d="M105.07,16.07c-1.23-1.06-1.23-2-.5-5S111.05,3,111.05,3c-3.36.74-8.94,4.27-10.82,6.15s-4.92,5.42-4.92,5.42c-4.1-4.84,5.33-12.63,5.33-12.63-8.53,1.23-13.2,12.87-13.2,12.87C83.42,9.76,92.11,0,92.11,0,78.41,8.53,77.92,16.89,77.92,16.89,74.23,9.84,81.45,3,81.45,3c-11.73,7.63-12.06,16-12.06,16-4.92-6.6,3.69-14.48,3.69-14.48C61.6,11.81,60.21,24.44,60.21,24.44,55.12,16.73,60.86,8,60.86,8c-9.18,9.6-6.8,22.15-6.8,22.15-5-1.15-3.35-13.78-3.35-13.78C45.32,33,51.93,36.49,51.93,36.49c-2.55,1.15-3.37,0-3.37,0A11,11,0,0,1,44.3,25.67c-3.94,11,3.45,20.58,3.45,20.58s-1.4,1.48-4.93-1.06-3.77-10.75-3.77-10.75C37.74,49.12,46.27,53.8,46.27,53.8c-5.66,2.05-11.73-6.48-11.73-6.48,3.85,11.15,11.73,14.1,11.73,14.1-8.2.09-11.73-4.51-11.73-4.51,2.87,9.11,10.39,9,10.39,9h64.83V19.07c1.82-5.46,9.74-8,9.74-8C107.2,10.66,105.07,16.07,105.07,16.07Z"/></g></g></svg>