<svg xmlns="http://www.w3.org/2000/svg" viewBox="0 0 120.2 65.93"><defs><style>.cls-1{fill:#49494a;}.cls-2{fill:#84d044;}</style></defs><g id="Layer_2" data-name="Layer 2"><g id="Grafica"><path class="cls-1" d="M120.2,61.21a4.72,4.72,0,0,0-9.3-1.14L76.7,25.43a.1.1,0,0,0-.17.08V65.83a.09.09,0,0,0,.1.1h39l.08,0A4.72,4.72,0,0,0,120.2,61.21ZM85.14,46.51a3.37,3.37,0,1,1,3.37-3.37A3.37,3.37,0,0,1,85.14,46.51Z"/><path class="cls-1" d="M86.46,42.59a1.07,1.07,0,0,1-1.07-1.08,1.11,1.11,0,0,1,.31-.76,2.52,2.52,0,0,0-.56-.07,2.46,2.46,0,1,0,2.46,2.46,2.4,2.4,0,0,0-.25-1.06A1.06,1.06,0,0,1,86.46,42.59Z"/><path class="cls-2" d="M70.53,16.07c-1.23-1.06-1.23-2-.5-5S76.51,3,76.51,3c-3.36.74-8.94,4.27-10.82,6.15s-4.92,5.42-4.92,5.42C56.67,9.68,66.1,1.89,66.1,1.89,57.57,3.12,52.9,14.76,52.9,14.76,48.88,9.76,57.57,0,57.57,0,43.87,8.53,43.38,16.89,43.38,16.89,39.69,9.84,46.91,3,46.91,3c-11.73,7.63-12.06,16-12.06,16-4.92-6.6,3.69-14.48,3.69-14.48C27.06,11.81,25.67,24.44,25.67,24.44,20.58,16.73,26.32,8,26.32,8c-9.18,9.6-6.8,22.15-6.8,22.15-5-1.15-3.35-13.78-3.35-13.78C10.78,33,17.39,36.49,17.39,36.49c-2.55,1.15-3.37,0-3.37,0A11,11,0,0,1,9.76,25.67c-3.94,11,3.45,20.58,3.45,20.58s-1.4,1.48-4.93-1.06S4.51,34.44,4.51,34.44C3.2,49.12,11.73,53.8,11.73,53.8,6.07,55.85,0,47.32,0,47.32c3.85,11.15,11.73,14.1,11.73,14.1C3.53,61.51,0,56.91,0,56.91c2.87,9.11,10.39,9,10.39,9H75.22V19.07c1.82-5.46,9.74-8,9.74-8C72.66,10.66,70.53,16.07,70.53,16.07Z"/></g></g></svg>