<svg id="Grafica" xmlns="http://www.w3.org/2000/svg" viewBox="0 0 283.46 283.46"><defs><style>.cls-1{fill:#84d044;}.cls-2{fill:#49494a;}</style></defs><path class="cls-1" d="M136.7,156.06c0,12.29-9.77,20.29-24.66,20.29H82.82V107.11h26.06c13.4,0,22.43,7.54,22.43,18.8a14.44,14.44,0,0,1-7.82,13.22C132,141.64,136.7,147.69,136.7,156.06Zm-29-36.76H97.15v15.45h10.43c5.77,0,9.3-3.07,9.3-7.82S113.53,119.3,107.67,119.3Zm3.81,44.86c6.52,0,10.33-3.07,10.33-8.47s-3.72-8.75-9.77-8.75H97.15v17.22Z"/><path class="cls-2" d="M146.39,176.35V107.11h25.4c17.41,0,28.85,10.43,28.85,26.34s-11.44,26.34-28.85,26.34H160.72v16.56ZM160.72,146h12c7.82,0,13.22-5.12,13.22-12.56s-5.4-12.56-13.22-12.56h-12Z"/></svg>