<svg id="Grafica" xmlns="http://www.w3.org/2000/svg" viewBox="0 0 283.46 283.46"><defs><style>.cls-1{fill:#84d044;}.cls-2{fill:#49494a;}</style></defs><path class="cls-1" d="M104,49.54c10.53,0,17.33,5.81,20.29,13.26a23.68,23.68,0,0,1,.11,17.54,25,25,0,0,1-3,5.26,21,21,0,0,1,7.78,9.87,23.68,23.68,0,0,1,.11,17.54c-3,7.46-9.76,13.27-20.28,13.27H78.11V49.54H104ZM89.07,114.88h19.52c5,0,8.22-2.64,9.65-6a13.38,13.38,0,0,0,0-9.21c-1.32-3.4-4.5-6-9.54-6H99.82a10.72,10.72,0,0,0-10.64,10.63Zm14.8-32.67c5,0,8.23-2.64,9.65-6a13.26,13.26,0,0,0,0-9.21c-1.31-3.4-4.49-6-9.54-6H89.29V85a21.88,21.88,0,0,1,10.64-2.74h3.94Z"/><path class="cls-1" d="M148.82,49.54v76.74h-11.4V49.54Z"/><path class="cls-1" d="M202.65,104.68A22.46,22.46,0,0,1,180.28,127h-2.63a22.45,22.45,0,0,1-22.36-22.36V71.13a22.5,22.5,0,0,1,22.47-22.47h2.63a22.51,22.51,0,0,1,22.48,22.47v33.55Zm-11.4-33.55a11,11,0,0,0-11-11h-2.63a11,11,0,0,0-11,11v33.55a11,11,0,0,0,11,11h2.63a11,11,0,0,0,11-11Z"/><path class="cls-2" d="M78.11,137.47H92.25a12.4,12.4,0,0,1,12.38,12.39v17.58a12.39,12.39,0,0,1-12.38,12.38H78.11Zm6.29,36.07h7.91a6.06,6.06,0,0,0,6-6V149.92a6.06,6.06,0,0,0-6-6H84.4Z"/><path class="cls-2" d="M114.6,137.59v42.29h-6.28V137.59Z"/><path class="cls-2" d="M124.63,137.59l8.16,32.57,8.15-32.57h6.47l-10.58,42.29h-8l-10.57-42.29Z"/><path class="cls-2" d="M151.09,179.88V137.59H173v6.29H157.38v13.23a12,12,0,0,1,5.86-1.51h6.34v6.28h-6.34a5.9,5.9,0,0,0-5.86,5.86v5.86H173v6.28Z"/><path class="cls-2" d="M186.74,167.44a11.77,11.77,0,0,1-3.75-1.39v13.83h-6.28V137.59h13.77A12.41,12.41,0,0,1,202.87,150v5.25a12.43,12.43,0,0,1-9.79,12.09v.24a6.06,6.06,0,0,0,6,6h3.75v6.28h-3.75a12.39,12.39,0,0,1-12.38-12.38Zm9.9-17.52a6.05,6.05,0,0,0-6-6H183v11.54a5.91,5.91,0,0,0,5.86,5.86h1.63a6.06,6.06,0,0,0,6-6.05V150Z"/><path class="cls-1" d="M105.61,221.82a13,13,0,0,1-13,13H91.1a13,13,0,0,1-13-13V202.34a13.07,13.07,0,0,1,13-13.05h1.53a13.07,13.07,0,0,1,13,13.05v.45H99.12v-.45A6.38,6.38,0,0,0,92.75,196H91.22a6.38,6.38,0,0,0-6.36,6.36v19.48a6.38,6.38,0,0,0,6.36,6.37h1.53a6.39,6.39,0,0,0,6.37-6.37v-.45h6.62v.45Z"/><path class="cls-1" d="M116.24,189.8v44.56h-6.62V189.8Z"/><path class="cls-1" d="M120.06,189.74h27.5v6.62H137.12v38H130.5V196.42H120.06Z"/><path class="cls-1" d="M151.44,189.74h27.5v6.62H168.5v38h-6.62V196.42H151.44Z"/><path class="cls-1" d="M185.75,189.8h8.46l11.14,44.56h-6.81l-2.67-10.82a12.63,12.63,0,0,1-7.89,2.74h-4.59l-2,8.08h-6.82Zm4.2,10.25-4.9,19.61H188a6.16,6.16,0,0,0,4.39-1.85,6.53,6.53,0,0,0,1.46-2.35Z"/><path class="cls-1" d="M188.71,177.71l2,3.94,1.31,4.68-2.2,1.11-3-3.85-2-4Z"/></svg>