<?xml version="1.0" encoding="utf-8"?>
<!-- Generator: Adobe Illustrator 25.0.0, SVG Export Plug-In . SVG Version: 6.00 Build 0)  -->
<svg version="1.1"
	 id="Grafica" xmlns:cc="http://creativecommons.org/ns#" xmlns:dc="http://purl.org/dc/elements/1.1/" xmlns:inkscape="http://www.inkscape.org/namespaces/inkscape" xmlns:rdf="http://www.w3.org/1999/02/22-rdf-syntax-ns#" xmlns:sodipodi="http://sodipodi.sourceforge.net/DTD/sodipodi-0.dtd" xmlns:svg="http://www.w3.org/2000/svg"
	 xmlns="http://www.w3.org/2000/svg" xmlns:xlink="http://www.w3.org/1999/xlink" x="0px" y="0px" viewBox="0 0 39.7 76"
	 style="enable-background:new 0 0 39.7 76;" xml:space="preserve">
<style type="text/css">
	.st0{fill-rule:evenodd;clip-rule:evenodd;fill:#FFFFFF;}
</style>
<g>
	<path class="st0" d="M31.6,12.8c2.4-0.1,4.7,0,7.1,0c0.3,0,0.6,0,1,0V0.6c-1.3-0.1-2.6-0.3-3.9-0.4C33.4,0.1,31,0,28.5,0
		c-3.7,0.1-7.2,1-10.2,3.2c-3.5,2.5-5.4,6-6.1,10.2c-0.3,1.7-0.4,3.5-0.4,5.3c-0.1,2.7,0,5.5,0,8.2v1H0v13.7h11.6V76h14.2V41.7h11.6
		c0.6-4.5,1.2-9.1,1.8-13.7c-0.9,0-1.8,0-2.6,0c-3.3,0-10.9,0-10.9,0s0-6.8,0.1-9.7C26,14.2,28.4,12.9,31.6,12.8z"/>
</g>
</svg>
