<svg id="Grafica" xmlns="http://www.w3.org/2000/svg" viewBox="0 0 283.46 283.46"><defs><style>.cls-1{fill:#00af81;}.cls-2{fill:#9e12b0;}</style></defs><path d="M88.42,174.74A6.5,6.5,0,0,1,91,177.07v-2.92h6.33v20.6a11.63,11.63,0,0,1-1.13,5.16,8.58,8.58,0,0,1-3.44,3.68A11.15,11.15,0,0,1,87,205a11.93,11.93,0,0,1-7.44-2.17,8.17,8.17,0,0,1-3.25-5.86h6.25a3,3,0,0,0,1.41,1.87,5.17,5.17,0,0,0,2.73.68,4.28,4.28,0,0,0,3.13-1.13,4.85,4.85,0,0,0,1.16-3.6v-2.92a7,7,0,0,1-2.55,2.35,7.72,7.72,0,0,1-3.81.9A8.49,8.49,0,0,1,80,193.77,9.07,9.07,0,0,1,76.7,190a13.54,13.54,0,0,1,0-11.19A8.93,8.93,0,0,1,80,175.15a8.48,8.48,0,0,1,4.62-1.3A8,8,0,0,1,88.42,174.74Zm1.22,6a4.44,4.44,0,0,0-6.4,0,5.13,5.13,0,0,0-1.31,3.72,5.24,5.24,0,0,0,1.31,3.75,4.21,4.21,0,0,0,3.2,1.39,4.27,4.27,0,0,0,3.2-1.37,6,6,0,0,0,0-7.47Z"/><path d="M120.47,186H106.15a4.28,4.28,0,0,0,1.24,2.94,3.78,3.78,0,0,0,2.68,1,3.34,3.34,0,0,0,3.3-2h6.73a9.24,9.24,0,0,1-1.87,3.66,9.34,9.34,0,0,1-3.39,2.56,10.93,10.93,0,0,1-4.54.92,11.06,11.06,0,0,1-5.4-1.29,9.22,9.22,0,0,1-3.7-3.7,11.39,11.39,0,0,1-1.33-5.62,11.53,11.53,0,0,1,1.31-5.63,9,9,0,0,1,3.68-3.69,11.95,11.95,0,0,1,10.76,0,9,9,0,0,1,3.64,3.59,10.81,10.81,0,0,1,1.32,5.43A17,17,0,0,1,120.47,186Zm-6.36-3.51a3.22,3.22,0,0,0-1.12-2.59,4.08,4.08,0,0,0-2.77-1,4,4,0,0,0-2.68.92,4.11,4.11,0,0,0-1.35,2.63Z"/><path d="M132.27,174.91a7.05,7.05,0,0,1,3.69-1v6.69h-1.74a5.33,5.33,0,0,0-3.55,1,4.53,4.53,0,0,0-1.18,3.57v9.58h-6.32V174.15h6.32v3.44A8.18,8.18,0,0,1,132.27,174.91Z"/><path d="M170.71,176.26a8.85,8.85,0,0,1,2.28,6.47v12.06H166.7V183.58a4.25,4.25,0,0,0-1.06-3.09,4.4,4.4,0,0,0-5.8,0,4.29,4.29,0,0,0-1.06,3.09v11.21H152.5V183.58a4.29,4.29,0,0,0-1.06-3.09,4.4,4.4,0,0,0-5.8,0,4.25,4.25,0,0,0-1.06,3.09v11.21h-6.32V174.15h6.32v2.59a6.74,6.74,0,0,1,2.52-2.06,7.94,7.94,0,0,1,3.51-.75,8.61,8.61,0,0,1,4.16,1,7.22,7.22,0,0,1,2.87,2.85,8.27,8.27,0,0,1,2.92-2.77,7.84,7.84,0,0,1,4-1.07A8.13,8.13,0,0,1,170.71,176.26Z"/><path d="M177.15,171a3.18,3.18,0,0,1-1.06-2.42,3.22,3.22,0,0,1,1.06-2.46,3.85,3.85,0,0,1,2.72-1,3.8,3.8,0,0,1,2.68,1,3.21,3.21,0,0,1,1,2.46,3.17,3.17,0,0,1-1,2.42,3.75,3.75,0,0,1-2.68,1A3.8,3.8,0,0,1,177.15,171Zm5.86,3.13v20.64h-6.32V174.15Z"/><path d="M205.22,176.27a9.19,9.19,0,0,1,2.16,6.46v12.06h-6.29V183.58a4.52,4.52,0,0,0-1.07-3.22,4.19,4.19,0,0,0-5.77,0,4.57,4.57,0,0,0-1.07,3.22v11.21h-6.32V174.15h6.32v2.73a6.64,6.64,0,0,1,2.59-2.16,8.2,8.2,0,0,1,3.66-.79A7.5,7.5,0,0,1,205.22,176.27Z"/><path d="M101.07,205.51a8.9,8.9,0,0,1,3.27-3.7,8.57,8.57,0,0,1,4.62-1.3,7.94,7.94,0,0,1,3.83.89,6.6,6.6,0,0,1,2.54,2.33v-2.92h6.32v20.64h-6.32v-2.92a7,7,0,0,1-2.58,2.33,7.92,7.92,0,0,1-3.82.88,8.35,8.35,0,0,1-4.59-1.31,9,9,0,0,1-3.27-3.74,13.62,13.62,0,0,1,0-11.18ZM114,207.39a4.27,4.27,0,0,0-3.2-1.37,4.32,4.32,0,0,0-3.2,1.36,5.11,5.11,0,0,0-1.31,3.71,5.28,5.28,0,0,0,1.31,3.76,4.41,4.41,0,0,0,6.4,0,5.94,5.94,0,0,0,0-7.47Z"/><path d="M132,216.23h9v5.22h-16v-5l8.58-10.4H125v-5.21h15.75v5Z"/><path d="M157.81,220.45a9.42,9.42,0,0,1-3.81-3.7,12,12,0,0,1,0-11.22,9.5,9.5,0,0,1,3.85-3.72,12.18,12.18,0,0,1,10.95,0,9.5,9.5,0,0,1,3.85,3.72,11,11,0,0,1,1.4,5.6,10.82,10.82,0,0,1-1.42,5.6,9.6,9.6,0,0,1-3.89,3.72,11.64,11.64,0,0,1-5.49,1.29A11.39,11.39,0,0,1,157.81,220.45Zm8.54-5.51a5.3,5.3,0,0,0,1.27-3.81,5.42,5.42,0,0,0-1.23-3.81,4.22,4.22,0,0,0-6.13,0,5.45,5.45,0,0,0-1.22,3.83,5.51,5.51,0,0,0,1.21,3.81,3.87,3.87,0,0,0,3,1.33A4.11,4.11,0,0,0,166.35,214.94Z"/><path d="M195.05,202.94a9.15,9.15,0,0,1,2.16,6.45v12.06h-6.29V210.24a4.52,4.52,0,0,0-1.07-3.22,4.22,4.22,0,0,0-5.77,0,4.57,4.57,0,0,0-1.07,3.22v11.21h-6.32V200.81H183v2.74a6.58,6.58,0,0,1,2.59-2.17,8.2,8.2,0,0,1,3.66-.79A7.47,7.47,0,0,1,195.05,202.94Z"/><path d="M206.92,224.57A3.19,3.19,0,0,1,208,227a3.24,3.24,0,0,1-1.05,2.46,3.84,3.84,0,0,1-2.72,1,3.79,3.79,0,0,1-2.68-1,3.24,3.24,0,0,1-1.05-2.46,3.19,3.19,0,0,1,1.05-2.43,3.8,3.8,0,0,1,2.68-1A3.85,3.85,0,0,1,206.92,224.57Zm-5.86-3.12V200.81h6.32v20.64Z"/><path d="M149.56,224.57a3.19,3.19,0,0,1,1.05,2.43,3.24,3.24,0,0,1-1.05,2.46,3.84,3.84,0,0,1-2.72,1,3.79,3.79,0,0,1-2.68-1A3.25,3.25,0,0,1,143.1,227a3.2,3.2,0,0,1,1.06-2.43,3.8,3.8,0,0,1,2.68-1A3.85,3.85,0,0,1,149.56,224.57Zm-5.87-3.12V200.81H150v20.64Z"/><path class="cls-1" d="M120.88,84.86a47.05,47.05,0,0,0,9.59,2.25,42,42,0,0,0,4.78.45,132.49,132.49,0,0,0,.17,15.82c.06,1.3.13,2.59.19,3.88.08,2,.18,4.11.28,6.17.27,5.67.52,11.45.62,17.24,1.73,1.12,3.45,2.24,5.17,3.39l0,0,.06,0q2.4-1.6,4.82-3.16c0-3.53-.14-7.31-.32-11.52-.09-2.27-.2-4.54-.3-6.81-.19-4.12-.39-8.37-.52-12.56,0-1-.08-2-.12-3.08-.1-2.08-.2-4.22-.18-6.34l.24-.08a6.87,6.87,0,0,0,.92-.36c.51-.19,1-.34,1.44-.49.87-.28,1.83-.56,3-.87,1.7-.45,3.45-.86,5.14-1.26l2.15-.5a66.65,66.65,0,0,0,14.42-4.79c5.59-2.77,9-7.16,11.56-11.09,2.41-3.68,3.55-6.75,3.58-9.64a8.41,8.41,0,0,0-6.51-8.26,9,9,0,0,0-2.06-.22,24.52,24.52,0,0,0-6.3,1.15l-1.15.32A75.55,75.55,0,0,0,161.5,58a63.07,63.07,0,0,0-17.59,10.46,26.57,26.57,0,0,0-3.06,3.22A46.6,46.6,0,0,0,113.37,62H111.7c-3,0-6.25.38-7.82,3.24-2.11,3.85,1,7.78,2.88,10.13C110,79.46,114.79,82.66,120.88,84.86Zm34.21-12.71A67.66,67.66,0,0,1,171,64.74c1.31-.41,2.62-.78,3.94-1.11.28-.07,1.3-.2,2.25-.36a20.06,20.06,0,0,1-1.3,2.63c-2.44,3.79-4.42,6.1-8.54,8.09-6.34,3.06-13.65,4-20.55,5.93C148.69,76.6,151.93,74.15,155.09,72.15Zm-37.67-.21.42.06c.35,0,.69.11,1,.18.68.13,1.36.27,2,.43,1.27.31,2.52.67,3.76,1.09a36.18,36.18,0,0,1,8.07,4c-.73-.09-1.44-.21-2.31-.37A37.07,37.07,0,0,1,122.15,75a26.24,26.24,0,0,1-5.23-3.13Z"/><path class="cls-2" d="M206.75,138.4a4.73,4.73,0,0,0-3.69-1.6H162.78c12.65-4,25.42-7.46,38-10.22a3.25,3.25,0,0,0,2.65-3.69,3.83,3.83,0,0,0-3.69-3.53,3.69,3.69,0,0,0-.87.1c-11.26,2.46-22.66,5.46-33.93,8.93a285.28,285.28,0,0,1,28.26-14.13,3,3,0,0,0,1.63-1.87,4,4,0,0,0-.26-3.2,3.4,3.4,0,0,0-3.08-1.76,4.74,4.74,0,0,0-1.92.41,296.63,296.63,0,0,0-47.8,26.22l-.06,0,0,0a297.14,297.14,0,0,0-47.81-26.22,4.77,4.77,0,0,0-1.89-.41,3.48,3.48,0,0,0-3.1,1.75,4,4,0,0,0-.29,3.15,3.1,3.1,0,0,0,1.66,1.93,287.48,287.48,0,0,1,28.26,14.13c-11.28-3.47-22.68-6.47-33.93-8.93A3.72,3.72,0,0,0,80,122.89a3.25,3.25,0,0,0,2.65,3.69c12.6,2.76,25.38,6.2,38,10.22H80.41a4.85,4.85,0,0,0-4.92,5.08,5.31,5.31,0,0,0,1.23,3.47,4.7,4.7,0,0,0,3.69,1.6H203.06a4.85,4.85,0,0,0,4.91-5.08A5.3,5.3,0,0,0,206.75,138.4Z"/></svg>