<svg id="Layer_1" data-name="Layer 1" xmlns="http://www.w3.org/2000/svg" viewBox="0 0 12.83 14"><defs><style>.cls-1{fill:#84d044;}.cls-2{fill:#49494a;}</style></defs><path class="cls-1" d="M9.92,10.5A2.92,2.92,0,0,0,12,9.64a2.91,2.91,0,0,0-.37-4.42,2.57,2.57,0,0,0,.06-.55,2.93,2.93,0,0,0-.74-1.94,2.89,2.89,0,0,0-1.84-1A2.91,2.91,0,0,0,5.31.22,2.94,2.94,0,0,0,3.74,1.77a2.89,2.89,0,0,0-1.84,1,2.92,2.92,0,0,0-.73,1.94,3.41,3.41,0,0,0,.05.55A2.87,2.87,0,0,0,0,7.58H0A2.92,2.92,0,0,0,2.92,10.5Zm-7-1.17A1.75,1.75,0,0,1,2.16,6h0a.58.58,0,0,0,.29-.73,1.75,1.75,0,0,1,.18-1.6A1.73,1.73,0,0,1,4,2.92h.1a.57.57,0,0,0,.59-.43,1.74,1.74,0,0,1,3.37,0,.58.58,0,0,0,.59.43h.06a1.73,1.73,0,0,1,1.63,2.36.59.59,0,0,0,.29.73,1.75,1.75,0,0,1-.75,3.32Z"/><path class="cls-2" d="M7,7.91l2-1A.58.58,0,0,0,8.5,5.89L7,6.62V4.08a.59.59,0,0,0-1.17,0V7.21L4.35,6.48a.58.58,0,0,0-.78.27.57.57,0,0,0,.26.78l2,1v4.91a.59.59,0,0,0,1.17,0Z"/></svg>