<svg id="Grafica" xmlns="http://www.w3.org/2000/svg" viewBox="0 0 283.46 283.46"><defs><style>.cls-1{fill:#00a085;}</style></defs><path d="M98.69,215.88v26.29H91.78V215.88Z"/><path d="M123.72,242.17V240a10.9,10.9,0,0,1-3.48,1.89,12.72,12.72,0,0,1-4,.63,12.92,12.92,0,0,1-5.22-1.06,13.5,13.5,0,0,1-4.26-2.87,13.06,13.06,0,0,1-2.86-4.29,13.61,13.61,0,0,1-1-5.3,13.27,13.27,0,0,1,1.06-5.3,13.43,13.43,0,0,1,2.88-4.29,13.07,13.07,0,0,1,4.31-2.85,13.74,13.74,0,0,1,5.32-1,13.29,13.29,0,0,1,3.76.53,12.38,12.38,0,0,1,3.41,1.54V206.09h6.91v36.08Zm-14-13.17a7.58,7.58,0,0,0,7.67,7.62,9.07,9.07,0,0,0,3.51-.66,8,8,0,0,0,2.75-1.86V223.85a7.67,7.67,0,0,0-2.75-1.81,9.32,9.32,0,0,0-3.51-.66,7.52,7.52,0,0,0-7.67,7.62Z"/><path d="M159.54,238.89a15.7,15.7,0,0,1-10.64,3.78,14.55,14.55,0,0,1-5.58-1.06,14,14,0,0,1-4.49-2.87,13.32,13.32,0,0,1-4.06-9.69,13.74,13.74,0,0,1,1-5.32,13.41,13.41,0,0,1,2.85-4.34,13.19,13.19,0,0,1,4.32-2.9,13.4,13.4,0,0,1,5.32-1.06,12.41,12.41,0,0,1,5.17,1.08,13,13,0,0,1,4.14,3,13.63,13.63,0,0,1,2.73,4.47,15.9,15.9,0,0,1,1,5.63v1.81H141.73a7.37,7.37,0,0,0,2.73,4,7.65,7.65,0,0,0,4.74,1.51,9.33,9.33,0,0,0,3.23-.55,7.17,7.17,0,0,0,2.57-1.57Zm-11.4-17.76a6.17,6.17,0,0,0-4.09,1.44,7.43,7.43,0,0,0-2.37,3.86h12.87a7.61,7.61,0,0,0-2.4-3.81A6,6,0,0,0,148.14,221.13Z"/><path d="M185.38,242.17V240a11.12,11.12,0,0,1-3.48,1.89,12.72,12.72,0,0,1-4,.63,12.92,12.92,0,0,1-5.22-1.06,13.65,13.65,0,0,1-4.27-2.87,13.19,13.19,0,0,1-2.85-4.29,13.61,13.61,0,0,1-1-5.3,13.27,13.27,0,0,1,1.06-5.3,13.41,13.41,0,0,1,2.87-4.29,13.22,13.22,0,0,1,4.32-2.85,13.74,13.74,0,0,1,5.32-1,13.29,13.29,0,0,1,3.76.53,12.52,12.52,0,0,1,3.41,1.54v-1.72h6.91v26.29Zm-14-13.17a7.58,7.58,0,0,0,7.67,7.62,9.07,9.07,0,0,0,3.51-.66,8,8,0,0,0,2.75-1.86V223.85a7.67,7.67,0,0,0-2.75-1.81,9.36,9.36,0,0,0-3.51-.66,7.52,7.52,0,0,0-7.67,7.62Z"/><path d="M95.21,212.75a4,4,0,0,1-3.94-3.93,3.93,3.93,0,1,1,3.94,3.93Z"/><path class="cls-1" d="M170.61,86.42a2.07,2.07,0,0,0-1.89-.08A47.49,47.49,0,0,0,148,105.78a50.34,50.34,0,0,0-3.6,7.71c-.31-4.39-.76-8.64-1.27-12.64a2.71,2.71,0,0,0,.35-.24,32.53,32.53,0,0,0,9.37-34.94,2,2,0,0,0-3.23-.86,31.51,31.51,0,0,0-9.93,15.82c-1-4.92-1.86-8-2-8.49a2.06,2.06,0,0,0-2.45-1.46h-.06a2.06,2.06,0,0,0-1.45,2.51c0,.12.84,3.19,1.9,8.24a31.52,31.52,0,0,0-15.86-9.56,2.05,2.05,0,0,0-2.5,2.23,31.59,31.59,0,0,0,7.93,17.15h0a32.36,32.36,0,0,0,12.33,8.67c.45.17.89.34,1.34.48.55,4.16,1,8.6,1.36,13.19-.62-1.38-1.3-2.75-2.05-4.09a50.13,50.13,0,0,0-6.3-8.81,47.49,47.49,0,0,0-24.23-14.81,2.05,2.05,0,0,0-2.5,2.23,49,49,0,0,0,34.28,40.09l1.27.34c-.05,3.51-.22,7-.55,10.47-.31,3.22-.75,6.38-1.35,9.45a2,2,0,0,0,1.61,2.4,2,2,0,0,0,.87,0,2,2,0,0,0,1.54-1.59,109.74,109.74,0,0,0,1.76-14.2,49,49,0,0,0,27-47A2,2,0,0,0,170.61,86.42Zm-27-4.51a28.29,28.29,0,0,1,6.32-11.73,29,29,0,0,1-6.72,25.06A28.33,28.33,0,0,1,143.61,81.91Zm-4.32,42a44.1,44.1,0,0,1-19.12-12.71h0a44.13,44.13,0,0,1-10.43-20.46,45.28,45.28,0,0,1,29.55,33.17Zm-11-35.34h0A28.37,28.37,0,0,1,122,76.82a29,29,0,0,1,17.26,19.36A28.27,28.27,0,0,1,128.3,88.54Zm33.36,25.09A44.08,44.08,0,0,1,145.54,130,45.27,45.27,0,0,1,167.7,91.47,44.08,44.08,0,0,1,161.66,113.63Z"/><path class="cls-1" d="M139.84,40.82c-23.59,1-43.31,20.37-44.27,44a45.23,45.23,0,0,0,12,33.3A65.87,65.87,0,0,1,125.3,163v20a3,3,0,0,0,3.23,3.22h10v3.23a3.23,3.23,0,0,0,6.45,0v-3.23h10a3.46,3.46,0,0,0,3.23-3.22V163a64.93,64.93,0,0,1,17.11-44.27,46.22,46.22,0,0,0-35.5-77.92Zm11.94,139h-20V166.55h20Zm19.07-65.6a70,70,0,0,0-19.07,45.58h-20a75.07,75.07,0,0,0-19.38-45.89c-7.1-8.09-11-18.11-10.35-28.77,1-20.37,17.76-36.84,38.13-37.83A39.89,39.89,0,0,1,181.51,87,40.39,40.39,0,0,1,170.85,114.18Z"/></svg>