<?xml version="1.0" encoding="utf-8"?>
<!-- Generator: Adobe Illustrator 25.0.0, SVG Export Plug-In . SVG Version: 6.00 Build 0)  -->
<svg version="1.1" id="Layer_1" xmlns="http://www.w3.org/2000/svg" xmlns:xlink="http://www.w3.org/1999/xlink" x="0px" y="0px"
	 viewBox="0 0 20.4 20.4" style="enable-background:new 0 0 20.4 20.4;" xml:space="preserve">
<style type="text/css">
	.st0{fill:#FFFFFF;}
</style>
<g id="Layer_2_1_">
	<g id="IT">
		<circle class="st0" cx="15.6" cy="4.8" r="1.2"/>
		<path class="st0" d="M10.3,5.2c-2.8,0-5,2.2-5,5s2.2,5,5,5s5-2.2,5-5S13,5.2,10.3,5.2L10.3,5.2z M10.3,13.4
			c-1.8,0-3.2-1.4-3.2-3.2C7,8.4,8.5,7,10.3,7s3.2,1.4,3.2,3.2c0,0,0,0,0,0C13.5,12,12.1,13.4,10.3,13.4z"/>
		<path class="st0" d="M14.3,20.4H6.1c-3.4,0-6.1-2.7-6.1-6.1V6.1C0,2.7,2.7,0,6.1,0h8.1c3.4,0,6.1,2.7,6.1,6.1v8.1
			C20.4,17.6,17.6,20.4,14.3,20.4z M6.1,1.9c-2.3,0-4.2,1.9-4.2,4.2c0,0,0,0,0,0v8.1c0,2.3,1.9,4.2,4.2,4.2h8.1
			c2.3,0,4.2-1.9,4.2-4.2V6.1c0-2.3-1.9-4.2-4.2-4.2L6.1,1.9z"/>
	</g>
</g>
</svg>
