<?xml version="1.0" encoding="utf-8"?>
<!-- Generator: Adobe Illustrator 25.0.0, SVG Export Plug-In . SVG Version: 6.00 Build 0)  -->
<svg version="1.1"
	 id="Grafica" xmlns:cc="http://creativecommons.org/ns#" xmlns:dc="http://purl.org/dc/elements/1.1/" xmlns:inkscape="http://www.inkscape.org/namespaces/inkscape" xmlns:rdf="http://www.w3.org/1999/02/22-rdf-syntax-ns#" xmlns:sodipodi="http://sodipodi.sourceforge.net/DTD/sodipodi-0.dtd" xmlns:svg="http://www.w3.org/2000/svg"
	 xmlns="http://www.w3.org/2000/svg" xmlns:xlink="http://www.w3.org/1999/xlink" x="0px" y="0px" viewBox="0 0 100.6 70.5"
	 style="enable-background:new 0 0 100.6 70.5;" xml:space="preserve">
<style type="text/css">
	.st0{fill-rule:evenodd;clip-rule:evenodd;fill:#FFFFFF;}
</style>
<g>
	<path class="st0" d="M10.4,68.5C6.6,67.2,4,64.7,2.6,61c-3.3-9.2-4.3-47.7,2.1-55.3c2.2-2.6,5-4.1,8.4-4.5
		c17.4-1.9,71-1.6,77.2,0.6c3.6,1.3,6.2,3.7,7.6,7.3c3.7,9.5,3.8,44.1-0.5,53.3c-1.2,2.5-3,4.2-5.4,5.5
		C85.5,71.3,18.9,71.3,10.4,68.5z M37.9,50.4C48.4,45,58.7,39.7,69.2,34.2c-10.5-5.5-20.8-10.9-31.3-16.3
		C37.9,28.8,37.9,39.5,37.9,50.4z"/>
</g>
</svg>
